<svg xmlns="http://www.w3.org/2000/svg" xmlns:xlink="http://www.w3.org/1999/xlink" width="437" height="248" viewBox="0 0 437 248">
    <defs>
        <linearGradient id="23w45wh04b" x1="0%" x2="100%" y1="50%" y2="50%">
            <stop offset="0%" stop-color="#D41F9C"/>
            <stop offset="100%" stop-color="#FFA78C"/>
        </linearGradient>
        <linearGradient id="wjvj4fa3le" x1="50%" x2="50%" y1="-4.371%" y2="220.238%">
            <stop offset="0%" stop-color="#871FFF"/>
            <stop offset="100%" stop-color="#FFA78C"/>
        </linearGradient>
        <linearGradient id="woj7i8yzhh" x1="50%" x2="50%" y1="-102.505%" y2="212.14%">
            <stop offset="0%" stop-color="#871FFF"/>
            <stop offset="100%" stop-color="#FFA78C"/>
        </linearGradient>
        <linearGradient id="csb0nlr99k" x1="50%" x2="50%" y1="-353.192%" y2="101.302%">
            <stop offset="0%" stop-color="#871FFF"/>
            <stop offset="100%" stop-color="#FFA78C"/>
        </linearGradient>
        <linearGradient id="a85t5qgajn" x1="50%" x2="50%" y1="-228.333%" y2="178.988%">
            <stop offset="0%" stop-color="#871FFF"/>
            <stop offset="100%" stop-color="#FFA78C"/>
        </linearGradient>
        <linearGradient id="4e9b5hqt5q" x1="50%" x2="50%" y1="100%" y2="-2.135%">
            <stop offset="0%" stop-color="#871FFF"/>
            <stop offset="100%" stop-color="#FFA78C"/>
        </linearGradient>
        <linearGradient id="31wrrtbtgt" x1="-440.954%" x2="447.5%" y1="50%" y2="50%">
            <stop offset="0%" stop-color="#871FFF"/>
            <stop offset="100%" stop-color="#7EC8F4"/>
        </linearGradient>
        <linearGradient id="5msas4se5w" x1="0%" x2="100%" y1="50%" y2="50%">
            <stop offset="0%" stop-color="#871FFF"/>
            <stop offset="100%" stop-color="#7EC8F4"/>
        </linearGradient>
        <path id="9qlynyd51a" d="M350.022 23.743H435.894c0-4.957-3.987-8.976-8.906-8.976-1.88 0-3.622.589-5.059 1.59-2.574-4.648-7.5-7.793-13.157-7.793-5.723 0-10.7 3.218-13.25 7.955C392.5 7.08 383.71.25 373.335.25c-12.875 0-23.312 10.518-23.312 23.494m-296.93-5.725c-.693-.276-1.448-.429-2.238-.429-3.372 0-6.106 2.755-6.106 6.154H102.654c0-5.747-4.623-10.406-10.326-10.406-3.924 0-7.338 2.206-9.084 5.456C81.17 12.32 75.146 7.635 68.032 7.635c-6.825 0-12.649 4.314-14.94 10.383m241.065 64.266c-2.373-.942-4.956-1.465-7.661-1.465-11.554 0-20.92 9.439-20.92 21.083H400.11c0-30.48-24.517-55.187-54.76-55.187-23.386 0-43.344 14.776-51.193 35.57M0 97.901h118.975c0-18.608-14.969-33.693-33.433-33.693-4.221 0-8.26.79-11.978 2.23-7.81-7.604-18.44-12.284-30.156-12.284C19.435 54.155 0 73.742 0 97.902"/>
        <path id="9e5v4no3fd" d="M94.537.19C57.264.19 23.68 16.424.11 42.39l16 16.447c19.469-21.764 47.399-35.405 78.428-35.405 31.03 0 58.96 13.64 78.428 35.405l16-16.448C165.394 16.424 131.81.19 94.537.19z"/>
        <path id="fajko7zi3g" d="M.182 31.078L11.364 42.75C24.99 26.703 44.88 16.585 67.037 16.585c22.158 0 42.048 10.118 55.673 26.165l11.183-11.672C117.395 12.057 93.553.107 67.037.107 40.521.107 16.68 12.057.182 31.077"/>
        <path id="haqb50m6dj" d="M.046 28.788h57.73c0-15.872-12.923-28.74-28.865-28.74C12.97.048.046 12.916.046 28.788"/>
        <path id="4tk6x4hyxm" d="M.223 21.034L10.99 31.799c8.3-10.146 20.917-16.623 35.049-16.623 14.13 0 26.748 6.477 35.048 16.623l10.766-10.765C80.77 8.16 64.356.008 46.037.008S11.305 8.16.223 21.034"/>
        <path id="ceq8get7mp" d="M56.162 6.526c0 .95.211 1.848.588 2.657 2.79-1.54 2.978-3.66 2.978-3.66l9.03-.932c-.83-2.57-3.267-4.434-6.146-4.434-3.562 0-6.45 2.852-6.45 6.37zM99.767 41.51l-3.203 20.282c-.413 2.616 1.4 5.066 4.048 5.474l7.781 1.199c2.649.407 5.13-1.382 5.544-3.997l3.203-20.282c.413-2.615-1.4-5.066-4.048-5.474l-7.781-1.198c-.253-.04-.505-.058-.754-.058-2.35 0-4.416 1.69-4.79 4.054zM60.996 86.441l.173.397-16.7-1.312-3.005 37.3L4.278 145.29l.079.127-4.306 2.665 19.686 31.01.001.003 1.38 2.173c.953 1.5 2.585 2.323 4.255 2.323.91 0 1.831-.244 2.66-.756 2.346-1.453 3.057-4.51 1.585-6.828l-1.38-2.174-.002-.003-6.415-10.105 43.63-26.358 2.765-34.321 48.388 111.275-.092.04 4.13 9.029 27.928-12.458 5.354-2.388c2.525-1.126 3.647-4.06 2.507-6.553-1.14-2.493-4.112-3.601-6.636-2.475l-5.354 2.388-4.977 2.22L84.04 76.669l-23.045 9.772z"/>
        <path id="bc8319blws" d="M5.744.184C4.579.288 3.724 1.285 3.83 2.41c.043.448.234.848.52 1.161-.36-.083-.74-.114-1.13-.08C1.669 3.633.449 4.734.133 6.13l4.858.054.438 4.561 3.426-.307S7.257 9.014 7.012 6.466H7.01c-.107-.894-.565-1.67-1.232-2.206.117.009.236.01.357 0C7.3 4.154 8.157 3.157 8.048 2.031 7.946.972 7.023.175 5.943.175c-.066 0-.132.003-.2.009"/>
        <path id="40fnb58okv" d="M51.014.175c.216 2.252.313 3.649.313 3.649H27.061L9.207 45.73l-2.732-1.244h-.002l-2.766-1.26c-1.304-.593-2.839-.01-3.428 1.305s-.01 2.861 1.295 3.455l2.765 1.26h.002l14.425 6.567 2.062-4.6.12.052L38.78 9.409l1.429 18.095L62.746 41.4l-1.753 2.818v.001l-1.562 2.51c-.76 1.222-.393 2.834.82 3.6.427.27.903.399 1.373.399.863 0 1.706-.434 2.198-1.225l1.561-2.51v-.001l8.608-13.84-2.224-1.404.041-.067-19.209-11.844L51.047.173l-.033.002z"/>
    </defs>
    <g fill="none" fill-rule="evenodd">
        <g>
            <g>
                <g transform="translate(-502 -144) translate(502 144) translate(.232 29)">
                    <mask id="fkbzom536c" fill="#fff">
                        <use xlink:href="#9qlynyd51a"/>
                    </mask>
                    <path fill="url(#23w45wh04b)" d="M350.022 23.743H435.894c0-4.957-3.987-8.976-8.906-8.976-1.88 0-3.622.589-5.059 1.59-2.574-4.648-7.5-7.793-13.157-7.793-5.723 0-10.7 3.218-13.25 7.955C392.5 7.08 383.71.25 373.335.25c-12.875 0-23.312 10.518-23.312 23.494m-296.93-5.725c-.693-.276-1.448-.429-2.238-.429-3.372 0-6.106 2.755-6.106 6.154H102.654c0-5.747-4.623-10.406-10.326-10.406-3.924 0-7.338 2.206-9.084 5.456C81.17 12.32 75.146 7.635 68.032 7.635c-6.825 0-12.649 4.314-14.94 10.383m241.065 64.266c-2.373-.942-4.956-1.465-7.661-1.465-11.554 0-20.92 9.439-20.92 21.083H400.11c0-30.48-24.517-55.187-54.76-55.187-23.386 0-43.344 14.776-51.193 35.57M0 97.901h118.975c0-18.608-14.969-33.693-33.433-33.693-4.221 0-8.26.79-11.978 2.23-7.81-7.604-18.44-12.284-30.156-12.284C19.435 54.155 0 73.742 0 97.902" mask="url(#fkbzom536c)"/>
                </g>
                <g transform="translate(-502 -144) translate(502 144) translate(131.232)">
                    <mask id="5qx668qf3f" fill="#fff">
                        <use xlink:href="#9e5v4no3fd"/>
                    </mask>
                    <path fill="url(#wjvj4fa3le)" d="M94.537.19C57.264.19 23.68 16.424.11 42.39l16 16.447c19.469-21.764 47.399-35.405 78.428-35.405 31.03 0 58.96 13.64 78.428 35.405l16-16.448C165.394 16.424 131.81.19 94.537.19z" mask="url(#5qx668qf3f)"/>
                </g>
                <g transform="translate(-502 -144) translate(502 144) translate(160.232 41)">
                    <mask id="hfm2ss3gti" fill="#fff">
                        <use xlink:href="#fajko7zi3g"/>
                    </mask>
                    <path fill="url(#woj7i8yzhh)" d="M.182 31.078L11.364 42.75C24.99 26.703 44.88 16.585 67.037 16.585c22.158 0 42.048 10.118 55.673 26.165l11.183-11.672C117.395 12.057 93.553.107 67.037.107 40.521.107 16.68 12.057.182 31.077" mask="url(#hfm2ss3gti)"/>
                </g>
                <g transform="translate(-502 -144) translate(502 144) translate(200.232 98)">
                    <mask id="e06f0ullkl" fill="#fff">
                        <use xlink:href="#haqb50m6dj"/>
                    </mask>
                    <path fill="url(#csb0nlr99k)" d="M.046 28.788h57.73c0-15.872-12.923-28.74-28.865-28.74C12.97.048.046 12.916.046 28.788" mask="url(#e06f0ullkl)"/>
                </g>
                <g transform="translate(-502 -144) translate(502 144) translate(181.232 70)">
                    <mask id="cxtdc7ktdo" fill="#fff">
                        <use xlink:href="#4tk6x4hyxm"/>
                    </mask>
                    <path fill="url(#a85t5qgajn)" d="M.223 21.034L10.99 31.799c8.3-10.146 20.917-16.623 35.049-16.623 14.13 0 26.748 6.477 35.048 16.623l10.766-10.765C80.77 8.16 64.356.008 46.037.008S11.305 8.16.223 21.034" mask="url(#cxtdc7ktdo)"/>
                </g>
                <g fill="#000">
                    <path d="M47.064 20.374L12.687 64.127c-2.327 2.962-6.727 3.561-9.828 1.339-3.1-2.223-3.728-6.426-1.4-9.387.026-.035.075-.095.102-.129l35.472-42.948c2.164-2.622 6.144-3.07 8.888-1.002 2.703 2.035 3.195 5.758 1.143 8.374M48.524.133l-9.285.926s-.193 2.108-3.062 3.64c1.048 2.18 3.352 3.693 6.027 3.693 3.663 0 6.633-2.836 6.633-6.335 0-.67-.11-1.317-.313-1.924" transform="translate(-502 -144) translate(502 144) translate(61.232 26)"/>
                </g>
                <g transform="translate(-502 -144) translate(502 144) translate(41.232 24)">
                    <mask id="tvi4epqfkr" fill="#fff">
                        <use xlink:href="#ceq8get7mp"/>
                    </mask>
                    <path fill="url(#4e9b5hqt5q)" d="M56.162 6.526c0 .95.211 1.848.588 2.657 2.79-1.54 2.978-3.66 2.978-3.66l9.03-.932c-.83-2.57-3.267-4.434-6.146-4.434-3.562 0-6.45 2.852-6.45 6.37zM99.767 41.51l-3.203 20.282c-.413 2.616 1.4 5.066 4.048 5.474l7.781 1.199c2.649.407 5.13-1.382 5.544-3.997l3.203-20.282c.413-2.615-1.4-5.066-4.048-5.474l-7.781-1.198c-.253-.04-.505-.058-.754-.058-2.35 0-4.416 1.69-4.79 4.054zM60.996 86.441l.173.397-16.7-1.312-3.005 37.3L4.278 145.29l.079.127-4.306 2.665 19.686 31.01.001.003 1.38 2.173c.953 1.5 2.585 2.323 4.255 2.323.91 0 1.831-.244 2.66-.756 2.346-1.453 3.057-4.51 1.585-6.828l-1.38-2.174-.002-.003-6.415-10.105 43.63-26.358 2.765-34.321 48.388 111.275-.092.04 4.13 9.029 27.928-12.458 5.354-2.388c2.525-1.126 3.647-4.06 2.507-6.553-1.14-2.493-4.112-3.601-6.636-2.475l-5.354 2.388-4.977 2.22L84.04 76.669l-23.045 9.772z" mask="url(#tvi4epqfkr)"/>
                </g>
                <g>
                    <path fill="#FFF" d="M47.126 80.72H.038S.038.019 18.698.019C38.986-.61 47.126 80.72 47.126 80.72" transform="translate(-502 -144) translate(502 144) translate(84.232 36)"/>
                    <path fill="#881FFF" d="M243.485 101.815l3.937-.616c1.34-.21 2.257-1.47 2.048-2.813l-1.62-10.422c-.21-1.344-1.465-2.264-2.805-2.054l-3.937.616c-1.34.21-2.256 1.469-2.047 2.812l1.62 10.423c.21 1.344 1.464 2.263 2.804 2.054" transform="translate(-502 -144) translate(502 144) translate(84.232 36)"/>
                    <path fill="#000" d="M260.613 75.862l4.65.054s.198 1.089 1.696 1.755c-.416 1.184-1.486 2.078-2.813 2.202-1.817.17-3.426-1.171-3.595-2.994-.032-.35-.009-.691.062-1.017" transform="translate(-502 -144) translate(502 144) translate(84.232 36)"/>
                </g>
                <g transform="translate(-502 -144) translate(502 144) translate(344.232 106)">
                    <mask id="w4lzdk6cju" fill="#fff">
                        <use xlink:href="#bc8319blws"/>
                    </mask>
                    <path fill="url(#31wrrtbtgt)" d="M5.744.184C4.579.288 3.724 1.285 3.83 2.41c.043.448.234.848.52 1.161-.36-.083-.74-.114-1.13-.08C1.669 3.633.449 4.734.133 6.13l4.858.054.438 4.561 3.426-.307S7.257 9.014 7.012 6.466H7.01c-.107-.894-.565-1.67-1.232-2.206.117.009.236.01.357 0C7.3 4.154 8.157 3.157 8.048 2.031 7.946.972 7.023.175 5.943.175c-.066 0-.132.003-.2.009" mask="url(#w4lzdk6cju)"/>
                </g>
                <g transform="translate(-502 -144) translate(502 144) translate(304.232 146)">
                    <mask id="y1pn7oy59x" fill="#fff">
                        <use xlink:href="#40fnb58okv"/>
                    </mask>
                    <path fill="url(#5msas4se5w)" d="M51.014.175c.216 2.252.313 3.649.313 3.649H27.061L9.207 45.73l-2.732-1.244h-.002l-2.766-1.26c-1.304-.593-2.839-.01-3.428 1.305s-.01 2.861 1.295 3.455l2.765 1.26h.002l14.425 6.567 2.062-4.6.12.052L38.78 9.409l1.429 18.095L62.746 41.4l-1.753 2.818v.001l-1.562 2.51c-.76 1.222-.393 2.834.82 3.6.427.27.903.399 1.373.399.863 0 1.706-.434 2.198-1.225l1.561-2.51v-.001l8.608-13.84-2.224-1.404.041-.067-19.209-11.844L51.047.173l-.033.002z" mask="url(#y1pn7oy59x)"/>
                </g>
                <g>
                    <path fill="#FFF" d="M266.493 82.183c-.91-9.267-3.946-33.373-10.943-33.373-7.524 0-13.035 36.947-13.035 36.947h24.29s-.096-1.369-.312-3.574" transform="translate(-502 -144) translate(502 144) translate(94.232 65)"/>
                    <path fill="#000" d="M254.413 62.527l-.87 2.97-17.537-5.066c-1.963-.564-4.041.513-4.673 2.45-.644 1.974.45 4.09 2.444 4.727l21.356 6.82.081.026c.12.038.244.071.37.098 2.15.464 4.27-.885 4.739-3.011l1.39-6.315-7.3-2.7zM60.302 5.87C58.952 1.585 54.347-.803 50.02.534L16.028 11.037l-1.656-5.646-14.23 5.262 2.71 12.311c.043.19.096.397.154.587 1.24 4.06 5.57 6.356 9.672 5.129l.292-.087L54.84 16.067l.071-.022c4.328-1.337 6.741-5.893 5.39-10.176" transform="translate(-502 -144) translate(502 144) translate(94.232 65)"/>
                    <path stroke="#000" stroke-linecap="round" stroke-linejoin="round" stroke-width="14.273" d="M199.217 37.501L192.708 47.471" transform="translate(-502 -144) translate(502 144) translate(94.232 65)"/>
                    <path fill="#D5209C" d="M209.515 64.378l-4.516-7.966-.623-7.743.002.075h-10.182l-4.885 15.455-1.198-.407-.841-.285c-.59-.2-1.233.112-1.436.696-.202.584.112 1.22.703 1.42l1.943.66h.001l5.43 1.843.681-1.968.019.006 4.385-13.874.465 5.789 4.907 8.656-1.347.741-.856.472c-.546.3-.742.981-.438 1.521.206.368.591.575.988.575.186 0 .375-.045.549-.141l.856-.472 6.238-3.434-.845-1.619z" transform="translate(-502 -144) translate(502 144) translate(94.232 65)"/>
                    <path fill="#FFF" d="M204.376 48.669c-.037-1.168-.604-16.146-5.31-16.146-2.656 0-5.313 16.22-5.313 16.22h10.626l-.003-.074" transform="translate(-502 -144) translate(502 144) translate(94.232 65)"/>
                    <path fill="#D5209C" d="M191.136 40.96l1.372.794c.467.271 1.067.116 1.34-.346l2.122-3.583c.274-.462.117-1.056-.35-1.327l-1.372-.795c-.467-.271-1.067-.116-1.34.346l-2.122 3.583c-.274.462-.117 1.056.35 1.327" transform="translate(-502 -144) translate(502 144) translate(94.232 65)"/>
                    <path fill="#000" d="M198.145 31.778l2.035.21s.042.479.671.827c-.23.494-.735.838-1.32.838-.804 0-1.454-.644-1.454-1.438 0-.153.024-.3.068-.437" transform="translate(-502 -144) translate(502 144) translate(94.232 65)"/>
                    <path fill="#D5209C" d="M200.18 31.988l-2.035-.21c.187-.581.736-1.002 1.385-1.002.803 0 1.454.644 1.454 1.439 0 .214-.048.417-.133.6-.629-.348-.67-.827-.67-.827" transform="translate(-502 -144) translate(502 144) translate(94.232 65)"/>
                    <path fill="#000" d="M202.375 38.745l-.832 3.78c-.206.936-1.14 1.53-2.086 1.326-.184-.04-.356-.107-.51-.196l-.028-.017-5.98-3.487c-.79-.46-1.053-1.467-.587-2.249.454-.761 1.434-1.026 2.215-.613l6.115 3.248-2.624 1.113 1.09-3.715c.256-.874 1.18-1.377 2.064-1.124.845.243 1.345 1.096 1.163 1.934" transform="translate(-502 -144) translate(502 144) translate(94.232 65)"/>
                    <path fill="#FFF" d="M203.22 40.158L198.077 38.256 198.077 34.844 202.068 35.343z" transform="translate(-502 -144) translate(502 144) translate(94.232 65)"/>
                </g>
            </g>
        </g>
    </g>
</svg>
