<svg xmlns="http://www.w3.org/2000/svg" xmlns:xlink="http://www.w3.org/1999/xlink" version="1.1" id="Layer_1" x="0px" y="0px" viewBox="0 0 354.9 304.2" style="enable-background:new 0 0 354.9 304.2;" xml:space="preserve" width="354.9"  height="304.2" >
<path d="M140.7,146.5L74.7,0h-69l98.9,222.6c0.3,0.6,1,0.9,1.6,0.6c0.3-0.1,0.5-0.3,0.6-0.6L140.7,146.5z"/>
<path d="M284.7,0c0,0-89.4,201.8-100.6,226.5c-26.7,59-46.6,73.8-66.8,77c-0.2,0-0.4,0.2-0.4,0.4s0.2,0.4,0.4,0.4h63.2  c27.8,0,46.8-18.7,73.6-77.7C263.5,205.8,354.9,0,354.9,0H284.7z"/>
</svg>